<?xml version="1.0" encoding="utf-8"?>
<!-- Generator: Adobe Illustrator 22.1.0, SVG Export Plug-In . SVG Version: 6.00 Build 0)  -->
<svg version="1.1" id="Layer_1" xmlns="http://www.w3.org/2000/svg" xmlns:xlink="http://www.w3.org/1999/xlink" x="0px" y="0px"
	 viewBox="0 0 1224 792" style="enable-background:new 0 0 1224 792;" xml:space="preserve">
<style type="text/css">
	.st0{fill:#2946F5;}
	.st1{fill:#2945F4;}
	.st2{fill:#2846F4;}
	.st3{fill:#8E07ED;}
	.st4{fill:#0C0C0C;}
</style>
<g id="Layer_3">
	<path class="st0" d="M628.2,327.7c2.7-6.9,4.6-12.6,7-18.1c11.5-26.3,25-51.5,42.8-74.1c28.8-36.4,65.4-61.1,110.2-73.6
		c12.4-3.4,23.8-4.1,34.6,4c8.6,6.4,12.7,15.5,14.9,25.4c2.9,13.3,0.5,25.9-7.1,37.3c-6.9,10.5-17,16.2-29.3,18.4
		c-37.6,6.6-74.2,16.6-108.4,34.1c-19.1,9.8-37.1,21.5-52.9,36.2C636.6,320.6,633,323.6,628.2,327.7z"/>
	<g id="Layer_2">
	</g>
</g>
<g>
	<path class="st0" d="M626.4,347c25.5-3,49.8,1.9,73.4,10.4c25.3,9.1,47.8,23.3,69.2,39.2c7.2,5.4,14.5,10.5,19.1,18.9
		c6.9,12.6,6.7,26.7-2.4,37.8c-11.4,14-34.1,9.7-41.4-1.2c-14.6-21.8-31.1-42.1-50.6-59.7c-19-17.3-40.4-31.1-63.5-42.4
		c-1.2-0.6-2.3-1.2-3.5-1.8C626.6,348.2,626.6,347.7,626.4,347z"/>
	<path class="st0" d="M600.2,347.7c-6.9,3.6-13.2,6.9-19.5,10.3c-25.7,13.9-48,32.1-67.6,53.6c-11.5,12.5-22,25.9-31.2,40.3
		c-6.5,10.3-26.1,13.7-36.5,6c-14.1-10.3-15.2-27-7.8-41.9c4.5-9,12.5-14.3,20.1-20c16.4-12.1,33.5-23.1,52-31.8
		c18.2-8.5,37.2-14.7,57.2-17C577.6,346,588.6,344.6,600.2,347.7z"/>
	<path class="st1" d="M750.8,309.3c6.8,1.8,13,3.8,17.6,9.1c5.5,6.3,5.3,14.2-1.4,19.1c-7.3,5.2-15.6,7.3-24.7,5.8
		c-17-2.7-33.9-6-51-8.2c-17-2.2-34-4.7-51.2-5.8c-1.1-0.1-2.5,0.2-2.9-1.3c-0.3-0.9,0.7-1.4,1.4-1.8c27.8-19.8,55.8-39.3,88.3-50.9
		c11.8-4.2,24-5.9,36.5-5.5c8.4,0.3,16.9,6.3,18.7,13.1c2.1,8.2-1.8,18.4-8.6,22.8c-2.3,1.5-5,2-7.5,2.3
		C761.1,308.9,756.2,308.9,750.8,309.3z"/>
	<path class="st0" d="M589.7,328c-5.1,1.9-9.5,1.4-13.6,1.8c-28.3,2.7-56.3,6.8-84.2,12.2c-8.5,1.6-17,2.8-25.5-0.8
		c-6.4-2.7-11.9-6.1-12.3-13.8c-0.3-5.7,6-12.8,13-15.4c2.7-1,5.5-1.7,8.5-2.6c-6-0.8-11.9-1.1-17.6-2.3c-9.2-2-14-9.1-14-19.8
		c0-8.1,5.3-14.4,13.9-16.3c11.9-2.6,23.5-0.5,35,2.8c27,7.7,50.3,22.5,73.4,37.9C573.8,316.7,581.3,322.1,589.7,328z"/>
	<path class="st2" d="M619.1,358.4c10.1,5.7,17.7,12.9,24.5,20.9c16.6,19.4,29,41.5,39.8,64.5c14.5,31.1,25.9,63.4,34.1,96.8
		c1.9,7.9,1.4,16.2-1.8,24c-2.4,6-8.6,9.3-15,7.1c-5.9-2-10.8-5.5-14.1-11.7c-11.2-21.2-13.9-45-20.4-67.5
		c-8.8-30.4-17.1-60.9-28.4-90.4c-1.2-3.1-3.1-5.8-4.7-8.7c-0.6-1-1.6-1.9-1.8-3C630,379,623.3,369.8,619.1,358.4z"/>
	<path class="st0" d="M607.2,358.3c-7.2,15.6-13.8,30.2-19.6,45.2c-10.2,26.6-18.1,53.9-25.6,81.4c-5.5,20.2-10.5,40.5-16.1,60.7
		c-2.7,9.8-8.1,18-16.8,23.7c-9.9,6.5-17.8,1.9-20.2-9.3c-2.2-10.5-0.6-20.5,2.3-30.7c10.4-36.1,23.2-71.3,40.9-104.6
		c11-20.5,23.4-40.2,40.8-56.1C597,364.9,601.3,361.5,607.2,358.3z"/>
	<path class="st3" d="M630.1,355.9c10.1,2.8,18.9,8.3,27.3,14.2c25.8,18,45.4,41.9,63.8,67.1c6.6,9,9.5,18.2,6.7,28.9
		c-2,7.7-9.2,12.5-17.8,7.6c-4.4-2.5-7.1-6.3-9.3-11c-11.8-25.8-25.5-50.6-42.3-73.6c-8.7-11.8-19.1-21.9-29.3-32.4
		C629.5,356.4,629.8,356.1,630.1,355.9z"/>
	<path class="st3" d="M596.7,356.6c-17.3,16.2-32.2,34.4-44.5,54.7c-10.2,16.8-19.7,34-27.4,52.2c-3.5,8.4-12.9,13.1-18.3,11.6
		c-5.9-1.8-8.7-6.3-9.3-11.4c-1.1-8.2,0-16.4,5.1-23.5c13.7-18.7,27.8-37,44.8-52.8c13.7-12.7,28.6-23.7,45.9-30.9
		c0.9-0.4,1.9-0.4,2.8-0.7C596.2,356.1,596.4,356.4,596.7,356.6z"/>
	<path class="st3" d="M409.9,293c4.9-0.8,9.8-1.5,14.8-1.1c5.6,0.4,10.8,2.5,12.9,7.6c1.9,4.7,0.4,9.8-3.4,13.7
		c-2.1,2.1-4.4,4-7.2,6.6c9.4-1.1,19.5-3.4,23.2,7.8c3.1,9.7-5,14.9-11.7,21c4.1,0.2,7.4-1.4,11-0.1c3.7,1.4,6.7,2.9,7.4,7
		c0.7,4-1.9,6.8-4.8,8.6c-5.1,3.3-10.6,4.8-16.6,2.2c-5.8-2.6-7-6.3-3.6-11.7c0.6-1,1.1-2,1.8-3.2c-2.6-0.8-4.7,0.6-6.8,1
		c-7.2,1.4-14.8-0.8-17.7-5.6c-2.8-4.6-1.1-12.1,4.1-17.6c2.1-2.2,4.7-4,7.6-6.5c-6.6,2.2-12.6,3.1-18.9,2.5
		c-5.5-0.5-10.4-2.3-12.6-7.3c-2.1-4.9-0.1-9.5,3.3-13.7C397.5,298.6,403.9,296.1,409.9,293L409.9,293z"/>
	<path class="st3" d="M799.7,320.4c-3.6-3.6-6.8-5.4-8.9-8.4c-7-10.2-1.3-18.5,8.8-19.7c12.9-1.5,24.4,2.2,33.5,12.2
		c3.5,3.9,5.5,8.6,3.5,13.1c-2,4.6-6.7,7.2-12.1,7.4c-6.9,0.2-13.8,0.6-20.4-2.9c3.8,3.3,8.2,5.6,10.8,10c3.5,5.9,4.2,11.1,1.3,15.1
		c-3,4.1-10.7,6.6-16,5.4c-2.6-0.6-5.1-2.2-7.9-1.3c0,0.5-0.1,1,0.1,1.1c2.6,3,5.5,5.9,2.5,10.4c-2.5,3.7-7.7,5.4-12.9,4.3
		c-2.1-0.4-4.2-0.8-6.1-1.8c-3.9-2.1-7.2-4.9-6.8-9.9c0.3-3.9,4.6-7,9.9-7.4c1.9-0.2,3.9,0,7,0c-6.2-7.2-14.8-13.3-9-23
		C781.6,317,790.3,318.4,799.7,320.4z"/>
	<path class="st3" d="M813.1,254.9c15.6,0.3,29.9,4.6,42.4,14.2c3.9,3,6.5,7.2,7.4,11.9c1,5.4-2.9,8.6-6.9,10.9
		c-7.1,4.1-15,4.6-22.9,3.9c-10.6-1-20.8-3.8-30.3-8.9c-4.5-2.5-8.8-5.5-11.8-9.6c-5.8-8.2-5.2-13.4,3.9-18.8
		C799.4,255.8,804.8,255,813.1,254.9z"/>
	<path class="st2" d="M598.3,338.7c-4.1,2.1-8.7,1.5-12.9,2.1c-24.6,3.1-48.1,10-70.9,19.5c-21.2,8.9-41.8,19.1-61.1,31.5
		c-3.6,2.3-7.8,2.7-12,2.1c-3.2-0.5-5.9-2.5-6.8-5.8c-0.9-3.1,0.9-5.7,2.8-7.9c5.5-6.5,12.9-10.2,20.5-13.5
		c21.2-9.2,42.8-17.5,65.3-23.1c10.8-2.7,21.9-4.5,33-5.8c7.1-0.8,14.2-0.5,21.4-0.9C584.5,336.6,591.3,338,598.3,338.7z"/>
	<path class="st2" d="M627.6,338.3c13.5-1.4,26.9-1.8,40.5-0.6c19.4,1.7,38.2,6.2,56.6,12.2c18.1,5.9,35.8,12.8,52.8,21.3
		c5.1,2.6,9.9,6.2,12.7,11.5c2.7,5.1,0,10.5-5.8,11.2c-4.5,0.6-8.7-0.3-12.8-2.8c-31.8-19.4-65.2-35.3-101.4-44.8
		c-13-3.4-26.3-6.1-39.8-6.4C629.4,339.9,628.1,340.2,627.6,338.3z"/>
	<path class="st3" d="M359.5,128c14.9-0.6,29.1,0.3,42.7,5.8c0.9,0.4,1.8,0.8,2.6,1.3c5.6,4.1,5.5,7.3-0.4,10.8
		c-6.2,3.6-13.2,5-20.2,6c-9.5,1.3-19.1,2.6-28.6,1.9c-12.4-0.8-25-1-36.9-5.7c-3.8-1.5-8.7-2.6-8.6-7.6c0.1-4.7,4.9-6.1,8.4-7.3
		C331.9,128.5,345.9,127.3,359.5,128z"/>
	<path class="st3" d="M867.1,154.1c-13.5-1.3-27.3-0.9-40.3-5.9c-1.4-0.5-2.8-1-4.1-1.7c-2.6-1.4-5.8-3-5.6-6.2
		c0.2-3.1,3.2-5,5.9-6.2c8.8-3.8,18.2-5.5,27.7-6c10.2-0.6,20.4-0.6,30.6,0c9.6,0.6,19.2,2,28.1,6.1c2.9,1.4,6.5,2.9,6.4,6.7
		c-0.1,3.7-3.5,5.2-6.6,6.5c-7.9,3.5-16.4,4.9-24.9,5.5C878.6,153.3,872.9,154.4,867.1,154.1z"/>
	<path class="st3" d="M778.2,528.9c-0.7,3-1.1,6.3-2.4,9.3c-1.3,2.8-3.6,4.2-7.2,3c-8-2.7-11.3-9.8-15.1-16.2
		c-8.1-13.3-12.3-28.1-14.3-43.5c-0.5-3.8,0.8-7.3,2.5-10.4c1.6-3.1,4.5-4,8-2.3c3.6,1.7,6.1,4.3,8.5,7.3
		c10,12.6,15.2,27.3,18.6,42.7C777.5,522,777.2,525.4,778.2,528.9z"/>
	<path class="st3" d="M486.3,481.6c-2.1,20.4-8.5,39.1-22.2,54.9c-1.2,1.3-2.7,2.4-4.2,3.4c-5.3,3.4-9.7,1.3-10.8-5
		c-2.2-13.1,2.2-25.1,6.6-37c3.5-9.4,8.5-18.1,15.5-25.4c1.2-1.3,2.7-2.4,4.3-3.2c4.9-2.6,7.8-1.3,9.9,3.9
		C486.4,476,485.7,478.7,486.3,481.6z"/>
	<path class="st3" d="M354.5,193c-6.8-1.1-13.4-2-19.4-5.3c-10.6-5.9-11.9-16.8-2.6-24.5c11.9-9.9,37.1-9.9,47.6,2.3
		c4.4,5.1,4.7,11.7,0.4,16.8c-5.3,6.3-12.4,8.9-20.3,9.8C358.2,192.3,356.2,192.7,354.5,193z"/>
	<path class="st3" d="M869.8,155.9c8.6,0.1,16.1,1.7,22.6,6.2c9.4,6.7,10.1,17,1.1,23.8c-12.2,9.1-32.9,9-44.8-0.7
		c-9.9-8.1-7.2-18.3,2.8-24.3C857.3,157.4,863.8,156.1,869.8,155.9z"/>
	<path class="st3" d="M788.9,473.8c-1.3-5.2-3.3-10.2-0.8-15.4c3.3-6.8,9.7-8,15.1-2.8c5.3,5.2,6,11.7,4.3,18.3
		c-1.8,7.2-6.9,8.5-15.2,4.3c5.6,7.3,8.3,15.2,9.5,23.6c0.6,3.8-0.5,7.5-2.8,10.7c-2.9,4-6.6,4.5-11.3,1.8c-3.5-2-6.3-4.8-8.7-8
		c-3-3.9-4.7-8.5-7.7-12.5c-2.7-3.5-0.9-17.5,2.1-20.8c3.2-3.6,7.6-4,12-1.1C786.4,472.6,787.1,473.8,788.9,473.8z"/>
	<path class="st3" d="M436.6,474.6c4.7-3.4,8.5-6.4,13.2-3.9c5.3,2.8,5.4,7.8,5.2,12.9c-0.4,11.7-5.5,21.3-14.1,28.8
		c-3.1,2.8-7.1,5.2-11.6,2.4c-4.7-2.9-5.7-7.9-5.2-12.5c0.8-8.2,3.5-16,9.1-23.6c-4,2-7.5,3.3-10.8,1.1c-2.5-1.6-3.8-4.2-4.3-7
		c-1.8-9.9,3.9-20,11.5-20.7c4.2-0.4,9.1,4.8,9.6,10.3C439.4,466.2,438.4,469.8,436.6,474.6z"/>
	<path class="st3" d="M353.6,226c-4.3,0.7-8.6-0.7-12.7-2.9c-7.7-4.2-7.3-13.3-2.7-18c8.1-8.4,22.3-11.7,32.7-7.1
		c4.6,2,8.5,5.2,8.9,10.3c0.3,5-2.5,9-6.7,11.9C367.3,223.9,361.2,226.5,353.6,226z"/>
	<path class="st3" d="M872.4,225.9c-7.6,0.7-14.1-1.8-19.6-6c-9.2-7.1-9.2-16.2,1.7-21.7c10.8-5.5,27.4-1.3,34.8,8.5
		c3.8,5.1,2.1,12.7-3.9,16.2C881.3,225.3,876.9,226.7,872.4,225.9z"/>
	<path class="st3" d="M482,520.1c0.7-11.4,3.5-22,12.4-30.1c5.6-5.1,11.5-3.8,13.6,3.4c4,14,0,26.4-8.5,37.5
		c-2.6,3.3-6.3,6.1-10.7,4.7c-4.7-1.5-5.8-6.2-6.7-10.6C481.7,523.5,482,521.8,482,520.1z"/>
	<path class="st3" d="M744.1,520.8c-0.2,2.7-0.1,5.2-1,7.8c-3,8.3-9.1,9.9-15.3,3.6c-6.3-6.4-9.3-14.4-10.8-23.1
		c-0.9-5.4-0.7-10.7,1.1-15.8c2.4-6.9,8-8.2,13.4-3.4C740.7,498.1,743.4,509,744.1,520.8z"/>
	<path class="st3" d="M856.6,259.1c-7.9,0-13.4-3.1-17.6-8.7c-3.2-4.3-2.4-10.2,1.8-14.8c8.1-8.7,21.2-8.7,30.2-1.1
		c7.4,6.2,4.8,18.2-4.6,22.2C863,258.2,859.6,259.7,856.6,259.1z"/>
	<path class="st3" d="M369.9,259c-5,0.3-9.4-1.4-13.4-4.1c-8.2-5.7-7.3-17.6,1.4-22.5c10.7-6,21.8-3.1,27.4,3.4
		c4.8,5.5,4.8,11.4-0.2,16.7C381.1,256.9,376.1,259,369.9,259z"/>
	<path class="st3" d="M740.2,541c3.7-0.2,6.2,1.2,8,4.1c4,6.4,4.9,12.9,1.5,19.8c-2.8,5.6-8.3,7-13,3c-5.6-4.7-8.4-18.2-1.5-24.7
		C736.7,541.7,738.2,540.5,740.2,541z"/>
	<path class="st3" d="M485.2,541c5.7-1.4,10.1,7.4,9.6,13.6c-0.4,5.3-1.5,10.7-6.7,14c-3.9,2.5-7.3,1.7-10.2-1.3
		c-5.4-5.8-4.3-19.7,1.9-24.6C481.4,541.5,483.2,540.7,485.2,541z"/>
	<path class="st3" d="M424.6,448c-5.5,0.1-10.4-4.9-10.6-10.8c-0.1-4.2,3.9-8.9,7.5-9c4.7-0.1,10.4,6,10.5,11.2
		C432.1,444.5,429,448,424.6,448z"/>
	<path class="st3" d="M801.7,448c-4.6,0-7.6-3.2-7.7-8.2c-0.1-5.2,5.3-11.3,10.2-11.4c3.7-0.1,8,4.3,7.7,8.6
		C811.5,443.3,806.8,448.7,801.7,448z"/>
	<path class="st1" d="M800,383.2c-1.6,3.3,0.6,6.6-0.1,9.8c-0.3,1.6,1,3.5-0.9,4.8c-0.8-5.5-1.6-11.1-2.4-16.7
		C798.6,381,798.8,382.9,800,383.2z"/>
	<path class="st3" d="M595.9,355.9c0.4-0.8,1-1,1.8-0.6c-0.3,0.4-0.6,0.9-1,1.3C596.4,356.4,596.2,356.1,595.9,355.9z"/>
	<path class="st3" d="M629.3,356.6c-0.3-0.4-0.6-0.9-0.9-1.3c0.8-0.5,1.4-0.3,1.8,0.6C629.8,356.1,629.5,356.4,629.3,356.6z"/>
	<path class="st3" d="M410,293c-7.8,1.1-15.4,3.4-23.3,3.1c-4.3-0.2-8.5-0.9-12.5-2.2c-5.1-1.7-10.1-4.6-10.9-10.3
		c-0.9-5.7,2.5-10.6,6.9-14.1c14.6-11.6,31.5-15.6,49.8-14.4c3.5,0.2,7.1,1.2,10.3,2.9c9.7,5.1,11.3,11.7,3.8,20.5
		C427.6,286,418.5,289.1,410,293C409.9,293,410,293,410,293z"/>
</g>
<g id="Layer_4">
	<path class="st4" d="M959.8,131.8c-14.8-3.7-29.5-7.8-44.7-10.1c-60.1-9.1-115.7,2.5-167,35c-41.6,26.4-74.3,61.8-102.2,102
		c-6.9,10-13.1,20.4-19.8,30.6c-2.3,3.5-3.2,7.6-5,11.3c-0.7,1.5-1.2,4.1-3.5,3.3c-2-0.6-1.2-2.9-1.1-4.4
		c0.6-11.8,2.3-14.5,2.9-26.2c-0.4,0,8.5-74.8,9-79.5c0,0,2.4-12,2.4-12c3.7-16.3,6.1-26.3,13.1-41.6c4.3-9.3,9.2-18.1,17.4-24.5
		c1-0.8,1.8-2.2,3.8-1.2c11.2,5.3,21,1.2,30-5.5c2.4-1.8,4.6-4.4,3.4-7.7c-1.2-3.4-4.5-4.3-7.7-4.3c-11,0-21.2,2.1-27.4,12.6
		c-0.5,0.8-1.5,1.3-2.3,1.8c-5.5,3.6-9.8,8.4-13.3,14c-12.9,20.7-17.1,44.1-21.9,68.1c0.3-0.1-10.5,86.7-11.1,93.4
		c-0.1,1.4,0.2,3.2-2.1,3.2c-2.4,0-1.8-1.8-2.1-3.2c-1-5.6-7.4-76-9-81.5c-0.1,0-12.2-50.3-19.6-67.8c-4.5-10.6-11.6-19.4-18.5-28.1
		c-6.4-8.1-16.7-10-26.9-8.4c-6.1,0.9-7.7,6.3-3.1,10.6c8,7.5,17.8,10.5,28.5,7.8c2.9-0.7,4.2-0.1,5.8,1.8c4.5,5.6,8,11.8,11.1,18.3
		c7.8,16.9,17.9,64.5,17.9,64.8c1.6,9.5,11.7,85.9,12.2,95.5c0.1,1.4,0.9,3.3-0.9,4c-2.2,0.8-2.8-1.4-3.4-2.8
		c-6.8-17.7-18.2-32.8-29-48.1C547.5,213,513.8,178,471.1,152.7c-61.8-36.6-127.3-42.3-195.7-23.2c-4.8,1.3-9.7,2.5-14.5,3.7
		c-3.1,0.8-5.4,2.9-7.9,4.8c0,2,0,4,0,6c3.7,6.6,8.7,12.1,14.8,16.6c4,3,7.9,6.1,11.4,9.7c3.7,3.9,5.9,8.2,6.1,13.8
		c0.2,6.8,4.1,11.7,9.1,16c4.1,3.5,9.1,7.3,9.6,12.4c0.7,7.6,5,11.4,9.9,15.9c4.6,4.2,4.9,10.3,3.7,16.3c-0.3,1.8-1,3.1,1.3,4.6
		c8.7,5.8,11.2,11.8,8.4,21.7c-1.2,4.4-0.4,6.6,3.3,9.3c8.4,6.2,8.7,15.7,7.9,25c-0.6,6.2-1.2,10.9,5.7,14.8
		c7.1,4,8.5,12.3,8.8,20.2c0.1,2.8,0.7,4,3.6,4.4c11.7,1.7,18.1,9.1,20.4,20.3c0.6,2.9,1.4,3.7,4.5,3.3c9.9-1.3,16.7,4.2,22.4,11.5
		c7.7,9.9,14.8,10.4,23.5,1.6c0.3-0.3,0.7-0.5,1.1-0.8c1.8,1.1,0.7,2.5,0.4,3.6c-1.5,7-2.5,14.1-1.1,21.3c0.4,1.9-0.4,2.7-2,3.3
		c-12.4,5-19.6,14.4-22.6,27.2c-0.2,0.9,0.2,2.3-1.2,2.4c-5.3,0.5-5.3,4.8-6,8.4c-1.8,9.7-1,19.6-1,29.4c0,1.3,0.5,2.2,1.5,2.9
		c5.3,3.6,6.5,8.9,6.7,14.8c0.4,10.5-2.5,20.4-5.6,30.3c-0.6,1.8-1.2,3.1,1.2,4.5c10.4,5.8,13.4,15.5,13.4,26.6
		c0,3.3-1.2,7.4,0.3,9.7c1.3,2,5.7,1.8,8.8,2.7c12.9,3.9,22,11.9,26.8,24.7c0.6,1.6,0.8,3.5,3.2,4c4.1,0.9,5.3,4.3,5.6,7.9
		c0.7,9.3-0.3,18.3-6.3,26c-3.9,5-7.7,10-11.7,15c-9.2,11.4-9.9,25.1-9.8,38.7c0.1,6.8,6,9.9,10.9,13.3c1,0,2,0,3,0
		c13.7-7.7,16.2-20.5,15.5-34.5c-0.8-15.2,0.1-30.3,2.6-45.3c0.9-5.7,3.5-10.7,7.3-15.1c3.3-3.8,7.1-5.4,12.4-3.8
		c6.9,2.2,12.7-0.6,17.7-5.4c3-2.9,5.7-6.1,9.3-8.3c3.4-2.1,7.1-2.8,10.3-0.3c6.9,5.4,13.2,3,19.1-1.2c6.3-4.5,10.4-11.1,14.8-17.4
		c12.1-17.6,16.5-37.8,20.2-58.4c5.3-29.8,8.4-60,15.9-89.4c2.6-10.1,5.7-20.1,9.8-29.8c0.7-1.6,1-3.6,3.4-3.7
		c2.6-0.1,4,1.5,4.8,3.6c1.9,5,3,10.2,2.4,15.6c-1,10.3-1.9,20.6,1.6,30.6c0.7,2,1.7,3.9,2.9,6.4c5.6-8.7,5.9-17.9,5.5-27.2
		c-0.3-7.4-1.8-14.9,0.6-22.3c0.4-1.1,0.7-2.2,1.1-3.3c0.8-1.9,2.1-3.4,4.4-3.5c2.6-0.1,3.1,1.9,3.8,3.8
		c8.5,20.5,13.1,42.1,16.8,63.9c4.9,29,7.6,58.5,16.1,86.7c4.8,15.9,13.3,30.4,25.5,42.3c3.5,3.5,7.8,5.7,12.8,6.1
		c2.5,0.2,4.8-0.2,7-1.9c4.8-3.7,8.3-3.6,13.1,0c2.8,2.1,5.2,4.6,7.7,7.1c5.5,5.4,11.8,8,19.5,5.4c4-1.3,7.2,0.4,9.9,3.1
		c4.4,4.3,7.2,9.7,8.2,15.7c2.5,14.8,3.6,29.7,2.7,44.7c-0.4,6.6-0.1,13.3,2,19.8c2.3,7.2,7.4,11.9,13.5,15.7c1,0,2,0,3,0
		c11.1-5.7,11.6-14.8,10.5-26.2c-1.4-14.1-7.8-24.7-16.6-34.8c-7.1-8.2-11.8-17.2-11-28.5c0.4-5.1,0.3-10.2,6.7-11.8
		c1.6-0.4,1.7-2,2.1-3.2c5.4-15.3,16.9-23.4,32.2-26.5c3.4-0.7,4.3-1.8,4-5.1c-0.5-5.5-0.5-11,0.9-16.4c1.8-6.7,5.2-12.3,11.4-15.7
		c2.5-1.4,2.9-2.7,2-5.5c-3.3-9.8-6-19.7-5.5-30.2c0.2-5.7,1.5-10.9,6.6-14.3c1.3-0.9,1.6-1.9,1.6-3.3c-0.1-9.8,0.7-19.7-1.1-29.4
		c-0.6-3.4-0.7-7.6-5.8-8c-1.7-0.2-1.2-1.8-1.4-2.8c-3.1-12.4-9.9-21.7-22-26.5c-2.2-0.9-3.1-2-2.4-4.5c0.5-2.1,0.5-4.3,0.7-6.4
		c-0.8-5.5-1.6-11.1-2.4-16.7c2-0.3,2.2,1.6,3.4,2c1.1,0.7,2.2,1.3,3.4,2c6.2,3.7,13,2.4,17.2-3.4c6.3-8.8,13.8-15.5,25.7-13.5
		c2.4,0.4,2.3-1.4,2.5-2.7c2.4-12.1,9.3-19.6,21.8-21.3c2-0.3,2.3-1.1,2.4-2.8c0.3-11,3.5-20.3,14.3-25.3c1.8-0.8,1.2-1.9,1-3.3
		c-0.6-5.1-1.3-10.2-1-15.4c0.5-8.1,3.5-14.9,10.5-19.4c1.9-1.2,2-2.3,1.4-4.5c-2.9-10.1-2.4-19.2,8.3-24.8c1.9-1,1.1-2.5,0.9-3.9
		c-1.8-10.6,0.8-16.4,10.2-22.1c1-0.6,2.5-0.8,2.2-2.8c-1.3-8.9,4.3-14.4,10-19.5c5.9-5.2,9.9-11,10-19.2c0.1-4.4,2.7-7.8,5.5-10.9
		c3.5-3.8,7.6-7,11.7-10.1c6.1-4.5,11.1-9.9,14.8-16.5c0-2,0-4,0-6C969.3,134.5,964.7,133.1,959.8,131.8z M580.7,358
		c-25.7,13.9-48,32.1-67.6,53.6c-11.5,12.5-22,25.9-31.2,40.3c-6.5,10.3-26.1,13.7-36.5,6c-14.1-10.3-15.2-27-7.8-41.9
		c4.5-9,12.5-14.3,20.1-20c16.4-12.1,33.5-23.1,52-31.8c18.2-8.5,37.2-14.7,57.2-17c10.8-1.3,21.7-2.6,33.4,0.5
		C593.3,351.3,587,354.6,580.7,358z M597.7,355.3c-0.3,0.4-0.6,0.9-1,1.3c-17.3,16.2-32.2,34.4-44.5,54.7
		c-10.2,16.8-19.7,34-27.4,52.2c-3.5,8.4-12.9,13.1-18.3,11.6c-5.9-1.8-8.7-6.3-9.3-11.4c-1.1-8.2,0-16.4,5.1-23.5
		c13.7-18.7,27.8-37,44.8-52.8c13.7-12.7,28.6-23.7,45.9-30.9c0.9-0.4,1.9-0.4,2.8-0.7C596.3,355,596.9,354.8,597.7,355.3z
		 M585.4,340.8c-24.6,3.1-48.1,10-70.9,19.5c-21.2,8.9-41.8,19.1-61.1,31.5c-3.6,2.3-7.8,2.7-12,2.1c-3.2-0.5-5.9-2.5-6.8-5.8
		c-0.9-3.1,0.9-5.7,2.8-7.9c5.5-6.5,12.9-10.2,20.5-13.5c21.2-9.2,42.8-17.5,65.3-23.1c10.8-2.7,21.9-4.5,33-5.8
		c7.1-0.8,14.2-0.5,21.4-0.9c7-0.4,13.9,1,20.8,1.8C594.2,340.9,589.6,340.3,585.4,340.8z M457.9,307.1c-9.2-2-14-9.1-14-19.8
		c0-8.1,5.3-14.4,13.9-16.3c11.9-2.6,23.5-0.5,35,2.8c27,7.7,50.3,22.5,73.4,37.9c7.7,5.1,15.1,10.5,23.5,16.4
		c-5.1,1.9-9.5,1.4-13.6,1.8c-28.3,2.7-56.3,6.8-84.2,12.2c-8.5,1.6-17,2.8-25.5-0.8c-6.4-2.7-11.9-6.1-12.3-13.8
		c-0.3-5.7,6-12.8,13-15.4c2.7-1,5.5-1.7,8.5-2.6C469.5,308.7,463.6,308.3,457.9,307.1z M433.8,161c31.3,8.1,59.5,22.1,84.2,43.3
		c29.1,25,49.5,56.3,66,90.5c4.7,9.7,8.7,19.8,12.9,29.8c0.2,0.6,0,1.3,0,2.4c-7.8-6.9-15.2-13.7-23.1-19.9
		c-21.7-17-45.8-29.6-71.4-39.5c-23-8.9-46.8-14.9-70.9-19.4c-11-2.1-21.8-4.2-29.9-12.3c-14.7-14.7-17.7-32.4-11.2-51.9
		c0.3-0.9,0.7-1.8,1-2.8l3.1-5.8c5.5-8.9,13.5-14.1,23.7-16.1C423.6,158.4,428.7,159.7,433.8,161z M318.7,148.1
		c-3.8-1.5-8.7-2.6-8.6-7.6c0.1-4.7,4.9-6.1,8.4-7.3c13.4-4.7,27.3-5.9,40.9-5.2c14.9-0.6,29.1,0.3,42.7,5.8
		c0.9,0.4,1.8,0.8,2.6,1.3c5.6,4.1,5.5,7.3-0.4,10.8c-6.2,3.6-13.2,5-20.2,6c-9.5,1.3-19.1,2.6-28.6,1.9
		C343.2,153,330.6,152.9,318.7,148.1z M332.4,163.1c11.9-9.9,37.1-9.9,47.6,2.3c4.4,5.1,4.7,11.7,0.4,16.8
		c-5.3,6.3-12.4,8.9-20.3,9.8c-1.9,0.2-3.9,0.7-5.6,1c-6.8-1.1-13.4-2-19.4-5.3C324.5,181.8,323.2,170.9,332.4,163.1z M340.8,223
		c-7.7-4.2-7.3-13.3-2.7-18c8.1-8.4,22.3-11.7,32.7-7.1c4.6,2,8.5,5.2,8.9,10.3c0.3,5-2.5,9-6.7,11.9c-5.7,3.8-11.8,6.4-19.4,5.9
		C349.3,226.7,345,225.3,340.8,223z M358,232.4c10.7-6,21.8-3.1,27.4,3.4c4.8,5.5,4.8,11.4-0.2,16.7c-4.2,4.5-9.1,6.6-15.3,6.6
		c-5,0.3-9.4-1.4-13.4-4.1C348.3,249.2,349.3,237.3,358,232.4z M426.9,352.3c-7.2,1.4-14.8-0.8-17.7-5.6c-2.8-4.6-1.1-12.1,4.1-17.6
		c2.1-2.2,4.7-4,7.6-6.5c-6.6,2.2-12.6,3.1-18.9,2.5c-5.5-0.5-10.4-2.3-12.6-7.3c-2.1-4.9-0.1-9.5,3.3-13.7
		c4.6-5.6,11-8.1,17.1-11.2c-7.8,1.1-15.4,3.4-23.3,3.1c-4.3-0.2-8.5-0.9-12.5-2.2c-5.1-1.7-10.1-4.6-10.9-10.3
		c-0.9-5.7,2.5-10.6,6.9-14.1c14.6-11.6,31.5-15.6,49.8-14.4c3.5,0.2,7.1,1.2,10.3,2.9c9.7,5.1,11.3,11.7,3.8,20.5
		c-6.4,7.5-15.5,10.6-24.1,14.6c4.9-0.8,9.8-1.5,14.8-1.1c5.6,0.4,10.8,2.5,12.9,7.6c1.9,4.7,0.4,9.8-3.4,13.7
		c-2.1,2.1-4.4,4-7.2,6.6c9.4-1.1,19.5-3.4,23.2,7.8c3.1,9.7-5,14.9-11.7,21c4.1,0.2,7.4-1.4,11-0.1c3.7,1.4,6.7,2.9,7.4,7
		c0.7,4-1.9,6.8-4.8,8.6c-5.1,3.3-10.6,4.8-16.6,2.2c-5.8-2.6-7-6.3-3.6-11.7c0.6-1,1.1-2,1.8-3.2C431.1,350.5,429,352,426.9,352.3z
		 M429.2,379.7c0.1-0.2,0.2-0.4,0.3-0.6c0.1,0.1,0.2,0.2,0.3,0.3c-0.1,0.2-0.2,0.4-0.3,0.6C429.4,379.9,429.2,379.8,429.2,379.7z
		 M414,437.2c-0.1-4.2,3.9-8.9,7.5-9c4.7-0.1,10.4,6,10.5,11.2c0.1,5-3,8.5-7.4,8.5C419,448.1,414.2,443.1,414,437.2z M441,512.5
		c-3.1,2.8-7.1,5.2-11.6,2.4c-4.7-2.9-5.7-7.9-5.2-12.5c0.8-8.2,3.5-16,9.1-23.6c-4,2-7.5,3.3-10.8,1.1c-2.5-1.6-3.8-4.2-4.3-7
		c-1.8-9.9,3.9-20,11.5-20.7c4.2-0.4,9.1,4.8,9.6,10.3c0.4,3.8-0.7,7.4-2.4,12.3c4.7-3.4,8.5-6.4,13.2-3.9c5.3,2.8,5.4,7.8,5.2,12.9
		C454.7,495.4,449.6,504.9,441,512.5z M464,536.4c-1.2,1.3-2.7,2.4-4.2,3.4c-5.3,3.4-9.7,1.3-10.8-5c-2.2-13.1,2.2-25.1,6.6-37
		c3.5-9.4,8.5-18.1,15.5-25.4c1.2-1.3,2.7-2.4,4.3-3.2c4.9-2.6,7.8-1.3,9.9,3.9c1.1,2.8,0.4,5.6,1,8.4
		C484.2,502,477.7,520.7,464,536.4z M494.8,554.6c-0.4,5.3-1.5,10.7-6.7,14c-3.9,2.5-7.3,1.7-10.2-1.3c-5.4-5.8-4.3-19.7,1.9-24.6
		c1.6-1.3,3.4-2,5.4-1.7C490.9,539.7,495.3,548.4,494.8,554.6z M499.4,531c-2.6,3.3-6.3,6.1-10.7,4.7c-4.7-1.5-5.8-6.2-6.7-10.6
		c-0.3-1.6-0.1-3.3-0.1-5c0.7-11.4,3.5-22,12.4-30.1c5.6-5.1,11.5-3.8,13.6,3.4C511.9,507.4,508,519.8,499.4,531z M587.7,403.5
		c-10.2,26.6-18.1,53.9-25.6,81.4c-5.5,20.2-10.5,40.5-16.1,60.7c-2.7,9.8-8.1,18-16.8,23.7c-9.9,6.5-17.8,1.9-20.2-9.3
		c-2.2-10.5-0.6-20.5,2.3-30.7c10.4-36.1,23.2-71.3,40.9-104.6c11-20.5,23.4-40.2,40.8-56.1c4.1-3.7,8.4-7.1,14.3-10.3
		C600,373.9,593.4,388.5,587.7,403.5z M635.2,309.6c11.5-26.3,25-51.5,42.8-74.1c28.8-36.4,65.4-61.1,110.2-73.6
		c12.4-3.4,23.8-4.1,34.6,4c8.6,6.4,12.7,15.5,14.9,25.4c2.9,13.3,0.5,25.9-7.1,37.3c-6.9,10.5-17,16.2-29.3,18.4
		c-37.6,6.6-74.2,16.6-108.4,34.1c-19.1,9.8-37.1,21.5-52.9,36.2c-3.5,3.2-7.2,6.3-11.9,10.4C630.9,320.8,632.8,315.1,635.2,309.6z
		 M768.4,318.4c5.5,6.3,5.3,14.2-1.4,19.1c-7.3,5.2-15.6,7.3-24.7,5.8c-17-2.7-33.9-6-51-8.2c-17-2.2-34-4.7-51.2-5.8
		c-1.1-0.1-2.5,0.2-2.9-1.3c-0.3-0.9,0.7-1.4,1.4-1.8c27.8-19.8,55.8-39.3,88.3-50.9c11.8-4.2,24-5.9,36.5-5.5
		c8.4,0.3,16.9,6.3,18.7,13.1c2.1,8.2-1.8,18.4-8.6,22.8c-2.3,1.5-5,2-7.5,2.3c-4.8,0.8-9.8,0.8-15.1,1.2
		C757.6,311.1,763.7,313.2,768.4,318.4z M668,337.8c19.4,1.7,38.2,6.2,56.6,12.2c18.1,5.9,35.8,12.8,52.8,21.3
		c5.1,2.6,9.9,6.2,12.7,11.5c2.7,5.1,0,10.5-5.8,11.2c-4.5,0.6-8.7-0.3-12.8-2.8c-31.8-19.4-65.2-35.3-101.4-44.8
		c-13-3.4-26.3-6.1-39.8-6.4c-1.1,0-2.4,0.2-2.9-1.6C641.1,336.9,654.5,336.6,668,337.8z M699.8,357.4c25.3,9.1,47.8,23.3,69.2,39.2
		c7.2,5.4,14.5,10.5,19.1,18.9c6.9,12.6,6.7,26.7-2.4,37.8c-11.4,14-34.1,9.7-41.4-1.2c-14.6-21.8-31.1-42.1-50.6-59.7
		c-19-17.3-40.4-31.1-63.5-42.4c-1.2-0.6-2.3-1.2-3.5-1.8c-0.2-0.1-0.2-0.6-0.4-1.3C651.9,344,676.2,348.9,699.8,357.4z M728,466
		c-2,7.7-9.2,12.5-17.8,7.6c-4.4-2.5-7.1-6.3-9.3-11c-11.8-25.8-25.5-50.6-42.3-73.6c-8.7-11.8-19.1-21.9-29.3-32.4
		c-0.3-0.4-0.6-0.9-0.9-1.3c0.8-0.5,1.4-0.3,1.8,0.6c10.1,2.8,18.9,8.3,27.3,14.2c25.8,18,45.4,41.9,63.8,67.1
		C727.8,446.1,730.7,455.3,728,466z M715.7,564.6c-2.4,6-8.6,9.3-15,7.1c-5.9-2-10.8-5.5-14.1-11.7c-11.2-21.2-13.9-45-20.4-67.5
		c-8.8-30.4-17.1-60.9-28.4-90.4c-1.2-3.1-3.1-5.8-4.7-8.7c-0.6-1-1.6-1.9-1.8-3c-1.3-11.4-8.1-20.6-12.3-31.9
		c10.1,5.7,17.7,12.9,24.5,20.9c16.6,19.4,29,41.5,39.8,64.5c14.5,31.1,25.9,63.4,34.1,96.8C719.4,548.5,718.8,556.8,715.7,564.6z
		 M716.9,509c-0.9-5.4-0.7-10.7,1.1-15.8c2.4-6.9,8-8.2,13.4-3.4c9.2,8.3,12,19.2,12.7,30.9c-0.2,2.7-0.1,5.2-1,7.8
		c-3,8.3-9.1,9.9-15.3,3.6C721.5,525.8,718.4,517.8,716.9,509z M749.7,564.9c-2.8,5.6-8.3,7-13,3c-5.6-4.7-8.4-18.2-1.5-24.7
		c1.5-1.4,2.9-2.6,4.9-2.2c3.7-0.2,6.2,1.2,8,4.1C752.2,551.5,753.1,558,749.7,564.9z M775.8,538.1c-1.3,2.8-3.6,4.2-7.2,3
		c-8-2.7-11.3-9.8-15.1-16.2c-8.1-13.3-12.3-28.1-14.3-43.5c-0.5-3.8,0.8-7.3,2.5-10.4c1.6-3.1,4.5-4,8-2.3c3.6,1.7,6.1,4.3,8.5,7.3
		c10,12.6,15.2,27.3,18.6,42.7c0.7,3.1,0.4,6.5,1.4,10C777.5,531.9,777.1,535.2,775.8,538.1z M807.5,473.9
		c-1.8,7.2-6.9,8.5-15.2,4.3c5.6,7.3,8.3,15.2,9.5,23.6c0.6,3.8-0.5,7.5-2.8,10.7c-2.9,4-6.6,4.5-11.3,1.8c-3.5-2-6.3-4.8-8.7-8
		c-3-3.9-4.7-8.5-7.7-12.5c-2.7-3.5-0.9-17.5,2.1-20.8c3.2-3.6,7.6-4,12-1.1c1,0.7,1.8,1.9,3.5,1.9c-1.3-5.2-3.3-10.2-0.8-15.4
		c3.3-6.8,9.7-8,15.1-2.8C808.5,460.8,809.2,467.4,807.5,473.9z M804.2,428.3c3.7-0.1,8,4.3,7.7,8.6c-0.5,6.4-5.1,11.8-10.2,11.1
		c-4.6,0-7.6-3.2-7.7-8.2C793.9,434.5,799.3,428.5,804.2,428.3z M836.5,317.6c-2,4.6-6.7,7.2-12.1,7.4c-6.9,0.2-13.8,0.6-20.4-2.9
		c3.8,3.3,8.2,5.6,10.8,10c3.5,5.9,4.2,11.1,1.3,15.1c-3,4.1-10.7,6.6-16,5.4c-2.6-0.6-5.1-2.2-7.9-1.3c0,0.5-0.1,1,0.1,1.1
		c2.6,3,5.5,5.9,2.5,10.4c-2.5,3.7-7.7,5.4-12.9,4.3c-2.1-0.4-4.2-0.8-6.1-1.8c-3.9-2.1-7.2-4.9-6.8-9.9c0.3-3.9,4.6-7,9.9-7.4
		c1.9-0.2,3.9,0,7,0c-6.2-7.2-14.8-13.3-9-23c4.8-8,13.5-6.7,22.9-4.7c-3.6-3.6-6.8-5.4-8.9-8.4c-7-10.2-1.3-18.5,8.8-19.7
		c12.9-1.5,24.4,2.2,33.5,12.2C836.6,308.3,838.5,313.1,836.5,317.6z M855.9,292c-7.1,4.1-15,4.6-22.9,3.9
		c-10.6-1-20.8-3.8-30.3-8.9c-4.5-2.5-8.8-5.5-11.8-9.6c-5.8-8.2-5.2-13.4,3.9-18.8c4.5-2.7,9.9-3.5,18.2-3.6
		c15.6,0.3,29.9,4.6,42.4,14.2c3.9,3,6.5,7.2,7.4,11.9C863.8,286.4,859.9,289.6,855.9,292z M866.3,256.8c-3.2,1.4-6.7,2.9-9.7,2.3
		c-7.9,0-13.4-3.1-17.6-8.7c-3.2-4.3-2.4-10.2,1.8-14.8c8.1-8.7,21.2-8.7,30.2-1.1C878.3,240.8,875.7,252.7,866.3,256.8z
		 M885.3,222.9c-4,2.4-8.4,3.7-12.9,3c-7.6,0.7-14.1-1.8-19.6-6c-9.2-7.1-9.2-16.2,1.7-21.7c10.8-5.5,27.4-1.3,34.8,8.5
		C893,211.8,891.3,219.4,885.3,222.9z M893.4,185.9c-12.2,9.1-32.9,9-44.8-0.7c-9.9-8.1-7.2-18.3,2.8-24.3c5.9-3.6,12.4-4.9,18.4-5
		c8.6,0.1,16.1,1.7,22.6,6.2C901.8,168.8,902.5,179.1,893.4,185.9z M909.3,147.4c-7.9,3.5-16.4,4.9-24.9,5.5
		c-5.8,0.4-11.5,1.5-17.3,1.2c-13.5-1.3-27.3-0.9-40.3-5.9c-1.4-0.5-2.8-1-4.1-1.7c-2.6-1.4-5.8-3-5.6-6.2c0.2-3.1,3.2-5,5.9-6.2
		c8.8-3.8,18.2-5.5,27.7-6c10.2-0.6,20.4-0.6,30.6,0c9.6,0.6,19.2,2,28.1,6.1c2.9,1.4,6.5,2.9,6.4,6.7
		C915.8,144.6,912.4,146,909.3,147.4z"/>
	<path class="st0" d="M394.5,175.5c5.5-8.9,13.5-14.1,23.7-16.1c5.4-1,10.5,0.3,15.6,1.6c31.3,8.1,59.5,22.1,84.2,43.3
		c29.1,25,49.5,56.3,66,90.5c4.7,9.7,8.7,19.8,12.9,29.8c0.2,0.6,0,1.3,0,2.4c-7.8-6.9-15.2-13.7-23.1-19.9
		c-21.7-17-45.8-29.6-71.4-39.5c-23-8.9-46.8-14.9-70.9-19.4c-11-2.1-21.8-4.2-29.9-12.3c-14.7-14.7-17.7-32.4-11.2-51.9
		c0.3-0.9,0.7-1.8,1-2.8L394.5,175.5z"/>
</g>
</svg>
