<svg width="390.0900634765625px" height="68.0249755859375px" xmlns="http://www.w3.org/2000/svg" viewBox="54.95496826171876 40.98751220703125 390.0900634765625 68.0249755859375" style="background: rgb(0, 158, 247);" preserveAspectRatio="xMidYMid"><defs><filter id="editing-vr"><feFlood flood-color="#009ef7" flood-opacity="0.7" result="c1"></feFlood><feFlood flood-color="#ffffff" flood-opacity="0.7" result="c3"></feFlood><feComposite operator="in" in="c1" in2="SourceAlpha" result="text-c1"></feComposite><feComposite operator="in" in="c3" in2="SourceAlpha" result="text-c3"></feComposite><feOffset in="text-c1" dx="1" dy="1" result="text1"></feOffset><feOffset in="text-c3" dx="-1" dy="-1" result="text3"></feOffset><feBlend in="SourceGraphic" in2="text1" mode="multiply" result="text4"></feBlend><feBlend in="text4" in2="text3" mode="multiply"></feBlend></filter></defs><g filter="url(#editing-vr)"><g transform="translate(114.31000608205795, 86.25)"><path d="M7.68-1.65L7.68-1.65L7.68-1.65Q6.75 0.60 3.78 0.60L3.78 0.60L3.78 0.60Q2.28 0.60 1.32-0.45L1.32-0.45L1.32-0.45Q0.54-1.32 0.54-2.31L0.54-2.31L0.54-2.31Q0.54-4.56 1.59-9.48L1.59-9.48L3.78-21L9.87-21.60L6.96-6.42L6.96-6.42Q6.45-4.20 6.45-3.42L6.45-3.42L6.45-3.42Q6.45-1.71 7.68-1.65ZM11.53-0.90L11.53-0.90L11.53-0.90Q10.83-1.68 10.51-2.91L10.51-2.91L10.51-2.91Q10.20-4.14 10.20-6.15L10.20-6.15L10.20-6.15Q10.20-8.16 10.89-9.99L10.89-9.99L10.89-9.99Q11.58-11.82 12.84-13.14L12.84-13.14L12.84-13.14Q15.42-15.90 19.68-15.90L19.68-15.90L19.68-15.90Q21.21-15.90 22.32-15.39L22.32-15.39L27.45-15.90L25.23-4.20L25.23-4.20Q25.14-3.84 25.14-3.18L25.14-3.18L25.14-3.18Q25.14-2.52 25.54-2.10L25.54-2.10L25.54-2.10Q25.95-1.68 26.55-1.62L26.55-1.62L26.55-1.62Q26.25-0.60 25.15 0L25.15 0L25.15 0Q24.06 0.60 22.83 0.60L22.83 0.60L22.83 0.60Q21.60 0.60 20.77 0.14L20.77 0.14L20.77 0.14Q19.95-0.33 19.71-1.11L19.71-1.11L19.71-1.11Q19.23-0.36 18.21 0.12L18.21 0.12L18.21 0.12Q17.19 0.60 15.82 0.60L15.82 0.60L15.82 0.60Q14.46 0.60 13.35 0.24L13.35 0.24L13.35 0.24Q12.24-0.12 11.53-0.90ZM17.86-13.08L17.86-13.08L17.86-13.08Q17.52-12.54 17.22-11.63L17.22-11.63L17.22-11.63Q16.92-10.71 16.42-8.27L16.42-8.27L16.42-8.27Q15.93-5.82 15.93-4.08L15.93-4.08L15.93-4.08Q15.93-2.34 16.20-1.83L16.20-1.83L16.20-1.83Q16.47-1.32 16.95-1.32L16.95-1.32L16.95-1.32Q17.91-1.32 18.61-2.23L18.61-2.23L18.61-2.23Q19.32-3.15 19.59-4.77L19.59-4.77L21.18-13.56L21.18-13.56Q20.55-14.10 19.81-14.10L19.81-14.10L19.81-14.10Q19.08-14.10 18.64-13.86L18.64-13.86L18.64-13.86Q18.21-13.62 17.86-13.08ZM46.14-14.79L46.14-14.79L46.14-14.79Q47.13-15.90 48.84-15.90L48.84-15.90L48.84-15.90Q49.89-15.90 50.70-15.33L50.70-15.33L50.70-15.33Q51.51-14.76 51.51-13.70L51.51-13.70L51.51-13.70Q51.51-12.63 51.18-11.49L51.18-11.49L51.18-11.49Q50.85-10.35 50.34-9.18L50.34-9.18L50.34-9.18Q49.32-6.90 47.91-5.01L47.91-5.01L47.91-5.01Q45.93-2.28 44.02-0.84L44.02-0.84L44.02-0.84Q42.12 0.60 40.05 0.60L40.05 0.60L40.05 0.60Q38.37 0.60 37.35 0.21L37.35 0.21L37.35 0.21Q37.17-6.09 36.94-8.34L36.94-8.34L36.94-8.34Q36.72-10.59 36.54-11.82L36.54-11.82L36.54-11.82Q36.24-14.22 35.34-14.79L35.34-14.79L35.34-14.79Q36.03-15.39 36.70-15.64L36.70-15.64L36.70-15.64Q37.38-15.90 38.77-15.90L38.77-15.90L38.77-15.90Q40.17-15.90 41.16-14.80L41.16-14.80L41.16-14.80Q42.15-13.71 42.34-11.78L42.34-11.78L42.34-11.78Q42.54-9.84 42.54-7.50L42.54-7.50L42.54-7.50Q42.54-5.16 42.36-2.34L42.36-2.34L42.36-2.34Q43.29-3 44.28-5.01L44.28-5.01L44.28-5.01Q45.63-7.80 46.11-11.16L46.11-11.16L46.11-11.16Q46.26-12.18 46.26-13.26L46.26-13.26L46.26-13.26Q46.26-14.34 46.14-14.79ZM59.52-1.65L59.52-1.65L59.52-1.65Q58.59 0.60 55.62 0.60L55.62 0.60L55.62 0.60Q54.09 0.60 53.13-0.45L53.13-0.45L53.13-0.45Q52.32-1.38 52.32-2.31L52.32-2.31L52.32-2.31Q52.32-4.74 53.43-9.48L53.43-9.48L54.54-15.30L60.63-15.90L58.80-6.42L58.80-6.42Q58.29-4.20 58.29-3.42L58.29-3.42L58.29-3.42Q58.29-1.71 59.52-1.65ZM55.08-19.47L55.08-19.47L55.08-19.47Q55.08-20.64 56.05-21.27L56.05-21.27L56.05-21.27Q57.03-21.90 58.44-21.90L58.44-21.90L58.44-21.90Q59.85-21.90 60.70-21.27L60.70-21.27L60.70-21.27Q61.56-20.64 61.56-19.47L61.56-19.47L61.56-19.47Q61.56-18.30 60.61-17.70L60.61-17.70L60.61-17.70Q59.67-17.10 58.26-17.10L58.26-17.10L58.26-17.10Q56.85-17.10 55.96-17.70L55.96-17.70L55.96-17.70Q55.08-18.30 55.08-19.47ZM71.52-15.90L71.52-15.90L71.52-15.90Q72.60-15.90 73.44-15.66L73.44-15.66L73.44-15.66Q73.47-15.78 73.53-16.11L73.53-16.11L73.68-17.04L73.68-17.04Q73.80-17.64 73.98-18.63L73.98-18.63L74.46-21L80.43-21.60L77.10-4.20L77.10-4.20Q77.07-4.02 77.07-3.72L77.07-3.72L77.07-3.24L77.07-3.24Q77.07-2.58 77.40-2.08L77.40-2.08L77.40-2.08Q77.73-1.59 78.27-1.59L78.27-1.59L78.27-1.59Q77.67-0.18 75.84 0.42L75.84 0.42L75.84 0.42Q75.21 0.60 74.32 0.60L74.32 0.60L74.32 0.60Q73.44 0.60 72.63 0.14L72.63 0.14L72.63 0.14Q71.82-0.33 71.58-1.11L71.58-1.11L71.58-1.11Q71.10-0.33 70.14 0.14L70.14 0.14L70.14 0.14Q69.18 0.60 67.78 0.60L67.78 0.60L67.78 0.60Q66.39 0.60 65.23 0.24L65.23 0.24L65.23 0.24Q64.08-0.12 63.36-0.90L63.36-0.90L63.36-0.90Q62.04-2.43 62.04-5.91L62.04-5.91L62.04-5.91Q62.04-10.41 64.68-13.14L64.68-13.14L64.68-13.14Q67.32-15.90 71.52-15.90ZM71.31-14.10L71.31-14.10L71.31-14.10Q70.20-14.10 69.60-12.90L69.60-12.90L69.60-12.90Q69-11.70 68.38-8.73L68.38-8.73L68.38-8.73Q67.77-5.76 67.77-3.09L67.77-3.09L67.77-3.09Q67.77-1.26 68.85-1.26L68.85-1.26L68.85-1.26Q69.81-1.26 70.48-2.22L70.48-2.22L70.48-2.22Q71.16-3.18 71.43-4.77L71.43-4.77L73.05-13.56L73.05-13.56Q72.42-14.10 71.31-14.10ZM82.13-0.90L82.13-0.90L82.13-0.90Q81.42-1.68 81.11-2.91L81.11-2.91L81.11-2.91Q80.79-4.14 80.79-6.15L80.79-6.15L80.79-6.15Q80.79-8.16 81.48-9.99L81.48-9.99L81.48-9.99Q82.17-11.82 83.43-13.14L83.43-13.14L83.43-13.14Q86.01-15.90 90.27-15.90L90.27-15.90L90.27-15.90Q91.80-15.90 92.91-15.39L92.91-15.39L98.04-15.90L95.82-4.20L95.82-4.20Q95.73-3.84 95.73-3.18L95.73-3.18L95.73-3.18Q95.73-2.52 96.14-2.10L96.14-2.10L96.14-2.10Q96.54-1.68 97.14-1.62L97.14-1.62L97.14-1.62Q96.84-0.60 95.75 0L95.75 0L95.75 0Q94.65 0.60 93.42 0.60L93.42 0.60L93.42 0.60Q92.19 0.60 91.37 0.14L91.37 0.14L91.37 0.14Q90.54-0.33 90.30-1.11L90.30-1.11L90.30-1.11Q89.82-0.36 88.80 0.12L88.80 0.12L88.80 0.12Q87.78 0.60 86.42 0.60L86.42 0.60L86.42 0.60Q85.05 0.60 83.94 0.24L83.94 0.24L83.94 0.24Q82.83-0.12 82.13-0.90ZM88.45-13.08L88.45-13.08L88.45-13.08Q88.11-12.54 87.81-11.63L87.81-11.63L87.81-11.63Q87.51-10.71 87.02-8.27L87.02-8.27L87.02-8.27Q86.52-5.82 86.52-4.08L86.52-4.08L86.52-4.08Q86.52-2.34 86.79-1.83L86.79-1.83L86.79-1.83Q87.06-1.32 87.54-1.32L87.54-1.32L87.54-1.32Q88.50-1.32 89.20-2.23L89.20-2.23L89.20-2.23Q89.91-3.15 90.18-4.77L90.18-4.77L91.77-13.56L91.77-13.56Q91.14-14.10 90.41-14.10L90.41-14.10L90.41-14.10Q89.67-14.10 89.23-13.86L89.23-13.86L89.23-13.86Q88.80-13.62 88.45-13.08ZM117.99-5.07L117.99-5.07L117.99-5.07Q118.74-4.56 118.74-3.44L118.74-3.44L118.74-3.44Q118.74-2.31 118.17-1.59L118.17-1.59L118.17-1.59Q117.60-0.87 116.67-0.39L116.67-0.39L116.67-0.39Q114.75 0.60 112.68 0.60L112.68 0.60L112.68 0.60Q110.61 0.60 109.40 0.15L109.40 0.15L109.40 0.15Q108.18-0.30 107.37-1.14L107.37-1.14L107.37-1.14Q105.78-2.73 105.78-5.64L105.78-5.64L105.78-5.64Q105.78-10.17 108.24-12.93L108.24-12.93L108.24-12.93Q110.88-15.90 115.47-15.90L115.47-15.90L115.47-15.90Q118.32-15.90 119.73-14.70L119.73-14.70L119.73-14.70Q120.78-13.80 120.78-12.33L120.78-12.33L120.78-12.33Q120.78-7.05 111.66-7.05L111.66-7.05L111.66-7.05Q111.54-6.27 111.54-5.61L111.54-5.61L111.54-5.61Q111.54-4.23 112.16-3.71L112.16-3.71L112.16-3.71Q112.77-3.18 113.91-3.18L113.91-3.18L113.91-3.18Q115.05-3.18 116.27-3.71L116.27-3.71L116.27-3.71Q117.48-4.23 117.99-5.07ZM111.87-8.34L111.87-8.34L111.87-8.34Q114.00-8.34 115.23-9.66L115.23-9.66L115.23-9.66Q116.46-10.92 116.46-12.93L116.46-12.93L116.46-12.93Q116.46-13.62 116.21-13.99L116.21-13.99L116.21-13.99Q115.95-14.37 115.44-14.37L115.44-14.37L115.44-14.37Q114.93-14.37 114.50-14.17L114.50-14.17L114.50-14.17Q114.06-13.98 113.61-13.32L113.61-13.32L113.61-13.32Q112.50-11.82 111.87-8.34ZM130.77-10.53L130.77-10.53L130.77-10.53Q131.19-11.64 131.19-12.60L131.19-12.60L131.19-12.60Q131.19-14.37 129.75-14.37L129.75-14.37L129.75-14.37Q129-14.37 128.39-13.70L128.39-13.70L128.39-13.70Q127.77-13.02 127.77-12.18L127.77-12.18L127.77-12.18Q127.77-11.58 128.25-11.10L128.25-11.10L128.25-11.10Q128.94-10.44 130.71-9.36L130.71-9.36L130.71-9.36Q132.48-8.28 133.16-7.39L133.16-7.39L133.16-7.39Q133.83-6.51 133.83-5.29L133.83-5.29L133.83-5.29Q133.83-4.08 133.25-2.97L133.25-2.97L133.25-2.97Q132.66-1.86 131.61-1.08L131.61-1.08L131.61-1.08Q129.36 0.60 125.76 0.60L125.76 0.60L125.76 0.60Q123.81 0.60 122.31-0.42L122.31-0.42L122.31-0.42Q120.81-1.41 120.81-2.58L120.81-2.58L120.81-2.58Q120.81-3.75 121.67-4.44L121.67-4.44L121.67-4.44Q122.52-5.13 123.78-5.13L123.78-5.13L123.78-5.13Q125.04-5.13 125.82-4.65L125.82-4.65L125.82-4.65Q125.43-3.66 125.43-3L125.43-3L125.43-3Q125.43-1.02 127.11-1.02L127.11-1.02L127.11-1.02Q127.83-1.02 128.31-1.47L128.31-1.47L128.31-1.47Q128.79-1.92 128.79-2.70L128.79-2.70L128.79-2.70Q128.79-4.23 126.21-5.85L126.21-5.85L126.21-5.85Q124.11-7.23 123.63-7.77L123.63-7.77L123.63-7.77Q122.82-8.73 122.82-9.93L122.82-9.93L122.82-9.93Q122.82-11.13 123.39-12.27L123.39-12.27L123.39-12.27Q123.96-13.41 125.01-14.22L125.01-14.22L125.01-14.22Q127.20-15.90 131.01-15.90L131.01-15.90L131.01-15.90Q132.96-15.90 134.12-15.12L134.12-15.12L134.12-15.12Q135.27-14.34 135.27-13.02L135.27-13.02L135.27-13.02Q135.27-11.70 134.47-10.95L134.47-10.95L134.47-10.95Q133.68-10.20 132.24-10.20L132.24-10.20L132.24-10.20Q131.25-10.20 130.77-10.53ZM152.19-1.26L152.19-1.26L152.19-1.26Q150.75 0.60 147.18 0.60L147.18 0.60L147.18 0.60Q145.32 0.60 143.97-0.53L143.97-0.53L143.97-0.53Q142.62-1.65 142.62-3.27L142.62-3.27L142.62-3.27Q142.62-4.17 142.71-4.62L142.71-4.62L144.72-15.30L150.81-15.90L148.62-4.32L148.62-4.32Q148.50-3.66 148.50-3.27L148.50-3.27L148.50-3.27Q148.50-1.53 149.55-1.53L149.55-1.53L149.55-1.53Q150.72-1.53 151.56-3.12L151.56-3.12L151.56-3.12Q151.83-3.63 151.95-4.29L151.95-4.29L154.08-15.30L159.99-15.90L157.77-4.20L157.77-4.20Q157.68-3.75 157.68-3.27L157.68-3.27L157.68-3.27Q157.68-2.79 157.95-2.27L157.95-2.27L157.95-2.27Q158.22-1.74 159.09-1.62L159.09-1.62L159.09-1.62Q158.91-0.90 158.28-0.42L158.28-0.42L158.28-0.42Q156.96 0.60 155.54 0.60L155.54 0.60L155.54 0.60Q154.11 0.60 153.27 0.09L153.27 0.09L153.27 0.09Q152.43-0.42 152.19-1.26ZM174.30 0.60L174.30 0.60L174.30 0.60Q170.67 0.60 170.67-2.22L170.67-2.22L170.67-2.22Q170.70-3 170.94-4.32L170.94-4.32L171.48-7.08L171.48-7.08Q172.29-10.98 172.29-11.85L172.29-11.85L172.29-11.85Q172.29-13.59 171.27-13.59L171.27-13.59L171.27-13.59Q169.56-13.59 168.66-9.12L168.66-9.12L166.89 0L160.86 0.60L163.98-15.33L168.90-15.90L168.42-12.96L168.42-12.96Q169.83-15.90 174.15-15.90L174.15-15.90L174.15-15.90Q176.25-15.90 177.14-15.01L177.14-15.01L177.14-15.01Q178.02-14.13 178.02-12.15L178.02-12.15L178.02-12.15Q178.02-10.29 177.06-5.94L177.06-5.94L177.06-5.94Q176.61-3.99 176.61-3.25L176.61-3.25L176.61-3.25Q176.61-2.52 177.02-2.10L177.02-2.10L177.02-2.10Q177.42-1.68 178.02-1.62L178.02-1.62L178.02-1.62Q177.72-0.60 176.69 0L176.69 0L176.69 0Q175.65 0.60 174.30 0.60ZM195.57-10.53L195.57-10.53L195.57-10.53Q195.99-11.64 195.99-12.60L195.99-12.60L195.99-12.60Q195.99-14.37 194.55-14.37L194.55-14.37L194.55-14.37Q193.80-14.37 193.19-13.70L193.19-13.70L193.19-13.70Q192.57-13.02 192.57-12.18L192.57-12.18L192.57-12.18Q192.57-11.58 193.05-11.10L193.05-11.10L193.05-11.10Q193.74-10.44 195.51-9.36L195.51-9.36L195.51-9.36Q197.28-8.28 197.96-7.39L197.96-7.39L197.96-7.39Q198.63-6.51 198.63-5.29L198.63-5.29L198.63-5.29Q198.63-4.08 198.05-2.97L198.05-2.97L198.05-2.97Q197.46-1.86 196.41-1.08L196.41-1.08L196.41-1.08Q194.16 0.60 190.56 0.60L190.56 0.60L190.56 0.60Q188.61 0.60 187.11-0.42L187.11-0.42L187.11-0.42Q185.61-1.41 185.61-2.58L185.61-2.58L185.61-2.58Q185.61-3.75 186.47-4.44L186.47-4.44L186.47-4.44Q187.32-5.13 188.58-5.13L188.58-5.13L188.58-5.13Q189.84-5.13 190.62-4.65L190.62-4.65L190.62-4.65Q190.23-3.66 190.23-3L190.23-3L190.23-3Q190.23-1.02 191.91-1.02L191.91-1.02L191.91-1.02Q192.63-1.02 193.11-1.47L193.11-1.47L193.11-1.47Q193.59-1.92 193.59-2.70L193.59-2.70L193.59-2.70Q193.59-4.23 191.01-5.85L191.01-5.85L191.01-5.85Q188.91-7.23 188.43-7.77L188.43-7.77L188.43-7.77Q187.62-8.73 187.62-9.93L187.62-9.93L187.62-9.93Q187.62-11.13 188.19-12.27L188.19-12.27L188.19-12.27Q188.76-13.41 189.81-14.22L189.81-14.22L189.81-14.22Q192.00-15.90 195.81-15.90L195.81-15.90L195.81-15.90Q197.76-15.90 198.92-15.12L198.92-15.12L198.92-15.12Q200.07-14.34 200.07-13.02L200.07-13.02L200.07-13.02Q200.07-11.70 199.28-10.95L199.28-10.95L199.28-10.95Q198.48-10.20 197.04-10.20L197.04-10.20L197.04-10.20Q196.05-10.20 195.57-10.53ZM210.81-1.26L210.81-1.26L210.81-1.26Q209.37 0.60 205.80 0.60L205.80 0.60L205.80 0.60Q203.94 0.60 202.59-0.53L202.59-0.53L202.59-0.53Q201.24-1.65 201.24-3.27L201.24-3.27L201.24-3.27Q201.24-4.17 201.33-4.62L201.33-4.62L203.34-15.30L209.43-15.90L207.24-4.32L207.24-4.32Q207.12-3.66 207.12-3.27L207.12-3.27L207.12-3.27Q207.12-1.53 208.17-1.53L208.17-1.53L208.17-1.53Q209.34-1.53 210.18-3.12L210.18-3.12L210.18-3.12Q210.45-3.63 210.57-4.29L210.57-4.29L212.70-15.30L218.61-15.90L216.39-4.20L216.39-4.20Q216.30-3.75 216.30-3.27L216.30-3.27L216.30-3.27Q216.30-2.79 216.57-2.27L216.57-2.27L216.57-2.27Q216.84-1.74 217.71-1.62L217.71-1.62L217.71-1.62Q217.53-0.90 216.90-0.42L216.90-0.42L216.90-0.42Q215.58 0.60 214.16 0.60L214.16 0.60L214.16 0.60Q212.73 0.60 211.89 0.09L211.89 0.09L211.89 0.09Q211.05-0.42 210.81-1.26ZM232.26-5.07L232.26-5.07L232.26-5.07Q233.01-4.56 233.01-3.44L233.01-3.44L233.01-3.44Q233.01-2.31 232.44-1.59L232.44-1.59L232.44-1.59Q231.87-0.87 230.94-0.39L230.94-0.39L230.94-0.39Q229.02 0.60 226.95 0.60L226.95 0.60L226.95 0.60Q224.88 0.60 223.67 0.15L223.67 0.15L223.67 0.15Q222.45-0.30 221.64-1.14L221.64-1.14L221.64-1.14Q220.05-2.73 220.05-5.64L220.05-5.64L220.05-5.64Q220.05-10.17 222.51-12.93L222.51-12.93L222.51-12.93Q225.15-15.90 229.74-15.90L229.74-15.90L229.74-15.90Q232.59-15.90 234.00-14.70L234.00-14.70L234.00-14.70Q235.05-13.80 235.05-12.33L235.05-12.33L235.05-12.33Q235.05-7.05 225.93-7.05L225.93-7.05L225.93-7.05Q225.81-6.27 225.81-5.61L225.81-5.61L225.81-5.61Q225.81-4.23 226.43-3.71L226.43-3.71L226.43-3.71Q227.04-3.18 228.18-3.18L228.18-3.18L228.18-3.18Q229.32-3.18 230.54-3.71L230.54-3.71L230.54-3.71Q231.75-4.23 232.26-5.07ZM226.14-8.34L226.14-8.34L226.14-8.34Q228.27-8.34 229.50-9.66L229.50-9.66L229.50-9.66Q230.73-10.92 230.73-12.93L230.73-12.93L230.73-12.93Q230.73-13.62 230.48-13.99L230.48-13.99L230.48-13.99Q230.22-14.37 229.71-14.37L229.71-14.37L229.71-14.37Q229.20-14.37 228.77-14.17L228.77-14.17L228.77-14.17Q228.33-13.98 227.88-13.32L227.88-13.32L227.88-13.32Q226.77-11.82 226.14-8.34ZM243.18-18.51L243.18-18.51L243.18-18.51Q241.92-18.51 241.17-18L241.17-18L241.17-18Q240.57-18.87 240.57-19.77L240.57-19.77L240.57-19.77Q240.57-20.67 241.34-21.20L241.34-21.20L241.34-21.20Q242.10-21.72 243.54-21.72L243.54-21.72L243.54-21.72Q244.62-21.72 246.18-21.54L246.18-21.54L246.18-21.54Q249.00-21.21 250.07-21.21L250.07-21.21L250.07-21.21Q251.13-21.21 251.64-21.72L251.64-21.72L251.64-21.72Q252.21-21.06 252.21-20.09L252.21-20.09L252.21-20.09Q252.21-19.11 251.45-18.54L251.45-18.54L251.45-18.54Q250.68-17.97 249.33-17.97L249.33-17.97L249.33-17.97Q248.79-17.97 247.92-18.06L247.92-18.06L246.15-18.24L246.15-18.24Q245.25-18.33 244.44-18.42L244.44-18.42L244.44-18.42Q243.63-18.51 243.18-18.51ZM248.76 0.60L248.76 0.60L248.76 0.60Q245.13 0.60 245.13-2.22L245.13-2.22L245.13-2.22Q245.16-3 245.40-4.32L245.40-4.32L245.94-7.08L245.94-7.08Q246.75-10.98 246.75-11.85L246.75-11.85L246.75-11.85Q246.75-13.59 245.73-13.59L245.73-13.59L245.73-13.59Q244.02-13.59 243.12-9.12L243.12-9.12L241.35 0L235.32 0.60L238.44-15.33L243.36-15.90L242.88-12.96L242.88-12.96Q244.29-15.90 248.61-15.90L248.61-15.90L248.61-15.90Q250.71-15.90 251.60-15.01L251.60-15.01L251.60-15.01Q252.48-14.13 252.48-12.15L252.48-12.15L252.48-12.15Q252.48-10.29 251.52-5.94L251.52-5.94L251.52-5.94Q251.07-3.99 251.07-3.25L251.07-3.25L251.07-3.25Q251.07-2.52 251.48-2.10L251.48-2.10L251.48-2.10Q251.88-1.68 252.48-1.62L252.48-1.62L252.48-1.62Q252.18-0.60 251.15 0L251.15 0L251.15 0Q250.11 0.60 248.76 0.60ZM261.42 0.60L261.42 0.60L261.42 0.60Q254.82 0.60 254.82-5.61L254.82-5.61L254.82-5.61Q254.82-10.02 257.25-12.87L257.25-12.87L257.25-12.87Q259.83-15.90 264.30-15.90L264.30-15.90L264.30-15.90Q267.54-15.90 269.19-14.40L269.19-14.40L269.19-14.40Q270.84-12.90 270.84-9.75L270.84-9.75L270.84-9.75Q270.84-4.95 268.26-2.16L268.26-2.16L268.26-2.16Q265.74 0.60 261.42 0.60ZM262.20-12.45L262.20-12.45L262.20-12.45Q261.84-11.64 261.56-10.42L261.56-10.42L261.56-10.42Q261.27-9.21 260.91-7.29L260.91-7.29L260.91-7.29Q260.55-5.37 260.55-3L260.55-3L260.55-3Q260.55-2.22 260.81-1.71L260.81-1.71L260.81-1.71Q261.06-1.20 261.75-1.20L261.75-1.20L261.75-1.20Q262.44-1.20 262.88-1.53L262.88-1.53L262.88-1.53Q263.31-1.86 263.64-2.64L263.64-2.64L263.64-2.64Q264.24-4.02 264.72-6.58L264.72-6.58L264.72-6.58Q265.20-9.15 265.25-10.26L265.25-10.26L265.25-10.26Q265.29-11.37 265.29-12.20L265.29-12.20L265.29-12.20Q265.29-13.02 265.05-13.56L265.05-13.56L265.05-13.56Q264.81-14.10 264.14-14.10L264.14-14.10L264.14-14.10Q263.46-14.10 263.01-13.68L263.01-13.68L263.01-13.68Q262.56-13.26 262.20-12.45Z" fill="#ffffff"></path></g></g><style>text {
  font-size: 64px;
  font-family: Arial Black;
  dominant-baseline: central;
  text-anchor: middle;
}</style></svg>
