<?xml version="1.0" encoding="UTF-8" standalone="no"?>
<!-- Created with Inkscape (http://www.inkscape.org/) -->

<svg
   xmlns:dc="http://purl.org/dc/elements/1.1/"
   xmlns:cc="http://creativecommons.org/ns#"
   xmlns:rdf="http://www.w3.org/1999/02/22-rdf-syntax-ns#"
   xmlns:svg="http://www.w3.org/2000/svg"
   xmlns="http://www.w3.org/2000/svg"
   xmlns:sodipodi="http://sodipodi.sourceforge.net/DTD/sodipodi-0.dtd"
   xmlns:inkscape="http://www.inkscape.org/namespaces/inkscape"
   width="210mm"
   height="100mm"
   viewBox="0 0 210 100"
   version="1.1"
   id="svg1028"
   inkscape:version="0.92.4 (5da689c313, 2019-01-14)"
   sodipodi:docname="PIP.svg">
  <defs
     id="defs1022" />
  <sodipodi:namedview
     id="base"
     pagecolor="#ffffff"
     bordercolor="#666666"
     borderopacity="1.0"
     inkscape:pageopacity="0.0"
     inkscape:pageshadow="2"
     inkscape:zoom="2"
     inkscape:cx="347.25632"
     inkscape:cy="264.31457"
     inkscape:document-units="mm"
     inkscape:current-layer="layer1"
     showgrid="false"
     inkscape:window-width="1920"
     inkscape:window-height="1003"
     inkscape:window-x="-9"
     inkscape:window-y="-9"
     inkscape:window-maximized="1" />
  <metadata
     id="metadata1025">
    <rdf:RDF>
      <cc:Work
         rdf:about="">
        <dc:format>image/svg+xml</dc:format>
        <dc:type
           rdf:resource="http://purl.org/dc/dcmitype/StillImage" />
        <dc:title></dc:title>
      </cc:Work>
    </rdf:RDF>
  </metadata>
  <g
     inkscape:label="Layer 1"
     inkscape:groupmode="layer"
     id="layer1"
     transform="translate(0,-197)">
    <path
       id="path1588"
       style="fill:#d40000;fill-opacity:1;stroke:#000000;stroke-width:0.26458332px;stroke-linecap:butt;stroke-linejoin:miter;stroke-opacity:1"
       d="m 20.396365,243.55294 c 1.604422,-0.63682 1.801383,-1.84086 4.963873,-3.86576 3.16249,-2.0249 6.250141,-3.22657 23.3353,-3.13453 0,0 0.08174,6.83616 0.560315,21.37914 0.219788,6.67885 23.931889,8.06065 24.623991,13.32116 0.918821,6.97869 -1.376467,6.53738 -15.802311,6.88219 -1.428287,0.0867 -30.468727,-1.46998 -37.150464,12.89576 z"
       inkscape:connector-curvature="0"
       sodipodi:nodetypes="czcscccc" />
    <path
       style="fill:#ffffff;fill-opacity:1;stroke:#000000;stroke-width:0;stroke-linecap:butt;stroke-linejoin:miter;stroke-miterlimit:4;stroke-dasharray:none;stroke-opacity:1"
       d="m 32.321611,245.70616 c 2.38353,-1.26948 16.548008,-0.73625 16.548008,-0.73625 l 0.226406,8.40396 -5.390091,0.0179 c -5.15889,-3.83929 -9.641452,-6.95412 -11.384323,-7.68567 z"
       id="path1633"
       inkscape:connector-curvature="0"
       sodipodi:nodetypes="ccccc" />
    <path
       style="fill:#6bcdfd;fill-opacity:1;stroke:#000000;stroke-width:0;stroke-linecap:butt;stroke-linejoin:miter;stroke-miterlimit:4;stroke-dasharray:none;stroke-opacity:1"
       d="m 21.038451,290.849 -0.528666,-47.22135 c 1.2673,-0.57893 1.241429,-0.7725 1.241181,-0.76732 0,0 7.706801,-0.55391 18.609137,7.89761 4.725733,3.6634 9.58719,6.22375 9.58719,6.22375 -6.599076,3.65594 -27.986413,15.46693 -28.908842,33.86731 z"
       id="path1631"
       inkscape:connector-curvature="0"
       sodipodi:nodetypes="cccscc" />
    <path
       style="fill:#2ca04c;fill-opacity:1;stroke:#000000;stroke-width:0.26458332px;stroke-linecap:butt;stroke-linejoin:round;stroke-opacity:1"
       d="m 48.5761,210.20191 c 8.044813,-5.94006 17.018409,-5.75592 25.86501,-5.98684 8.941384,-0.23338 26.56659,0.14032 26.56659,0.14032 l 0.0468,43.63843 -34.962193,0.88867 c -5.744493,0.14602 -14.705618,3.19769 -16.88913,7.54309 -0.641516,-15.43207 -0.532865,-30.76161 -0.627047,-46.22367 z"
       id="path1591"
       inkscape:connector-curvature="0"
       sodipodi:nodetypes="csccscc" />
    <path
       style="fill:#ffffff;fill-opacity:1;stroke:#000000;stroke-width:0;stroke-linecap:butt;stroke-linejoin:miter;stroke-miterlimit:4;stroke-dasharray:none;stroke-opacity:1"
       d="m 27.211103,274.8415 c 10.365395,-6.80145 42.368591,-3.75959 44.568953,-4.37464 0.354744,-0.15657 0.738974,-0.36968 0.955605,-0.71 -4.249961,-3.38131 -14.424593,-4.40961 -21.183801,-8.38538 l -10.30408,0.87472 c -2.522713,1.66377 -8.476735,5.78567 -14.036677,12.5953 z"
       id="path1635"
       inkscape:connector-curvature="0"
       sodipodi:nodetypes="cccccc" />
    <path
       style="fill:#ffffff;fill-opacity:1;stroke:#000000;stroke-width:0;stroke-linecap:butt;stroke-linejoin:miter;stroke-opacity:1;stroke-miterlimit:4;stroke-dasharray:none"
       d="m 28.471886,259.97522 3.952214,1.27331 -1.389063,-4.56406 4.051433,-2.91042 -4.81211,0.19844 -1.785937,-2.87735 -1.273308,4.74597 -4.282942,3.38997 2.89388,0.57878 -0.644922,5.1263 z"
       id="path1639"
       inkscape:connector-curvature="0" />
    <path
       style="fill:#ffffff;fill-opacity:0.97777776;stroke:#000000;stroke-width:0;stroke-linecap:butt;stroke-linejoin:miter;stroke-miterlimit:4;stroke-dasharray:none;stroke-opacity:1;paint-order:markers fill stroke"
       d="m 48.835692,236.48486 c 6.98879,-6.0075 13.880068,-5.79531 13.880068,-5.79531 0,0 0.04067,12.24842 0.05895,18.41375 2.384144,-0.48149 7.167235,-0.4491 11.258938,-0.5648 l 0.115698,-17.75209 26.742934,0.0443 -0.0111,-10.2065 -26.863436,-0.0976 -0.0015,-16.18031 c -3.750453,0.20233 -7.558816,0.0766 -11.248868,0.62108 l 0.202847,16.02725 c -4.794818,0.49906 -9.3745,0.86759 -14.209851,5.28324 z"
       id="path1641"
       inkscape:connector-curvature="0"
       sodipodi:nodetypes="ccccccccccccc" />
    <text
       xml:space="preserve"
       style="font-style:normal;font-variant:normal;font-weight:normal;font-stretch:normal;font-size:59.0318222px;line-height:1.25;font-family:'Open Sans';-inkscape-font-specification:'Open Sans';letter-spacing:0px;word-spacing:0px;fill:#000000;fill-opacity:1;stroke:none;stroke-width:1.47579563"
       x="103.91931"
       y="240.78636"
       id="text1653"
       transform="scale(0.97062152,1.0302677)"><tspan
         sodipodi:role="line"
         id="tspan1651"
         x="103.91931"
         y="240.78636"
         style="stroke-width:1.47579563">PIP</tspan></text>
    <text
       xml:space="preserve"
       style="font-style:normal;font-variant:normal;font-weight:normal;font-stretch:normal;font-size:8.20387077px;line-height:1.25;font-family:'Open Sans';-inkscape-font-specification:'Open Sans';letter-spacing:0px;word-spacing:0px;fill:#000000;fill-opacity:1;stroke:none;stroke-width:0.2050968"
       x="101.06026"
       y="270.06418"
       id="text1657"
       transform="scale(1.0443413,0.95754137)"><tspan
         sodipodi:role="line"
         id="tspan1655"
         x="101.06026"
         y="270.06418"
         style="font-weight:bold;stroke-width:0.2050968">PARTIDO</tspan><tspan
         sodipodi:role="line"
         x="101.06026"
         y="280.319"
         style="font-weight:bold;stroke-width:0.2050968"
         id="tspan1659">INDEPENDENTISTA</tspan><tspan
         sodipodi:role="line"
         x="101.06026"
         y="290.57385"
         style="font-weight:bold;stroke-width:0.2050968"
         id="tspan1661">PUERTORRIQUEÑO</tspan></text>
    <path
       style="opacity:1;fill:#0c6125;fill-opacity:1;fill-rule:evenodd;stroke:#000000;stroke-width:0.26812336;stroke-linecap:round;stroke-linejoin:round;stroke-miterlimit:4;stroke-dasharray:none;stroke-opacity:1"
       d="m 72.925838,269.75685 c -1.271081,-1.1537 -3.975552,-2.26209 -10.381713,-4.25479 -7.390733,-2.29896 -9.797776,-3.33616 -11.735024,-4.84608 -0.950808,-0.74107 -1.574083,-1.7448 -1.577489,-3.18687 l -0.02846,-1.04353 0.60339,-0.8327 c 1.877988,-2.59167 6.607191,-5.02707 11.96519,-6.1617 2.003971,-0.42438 4.013054,-0.57361 9.690024,-0.71975 l 2.412574,-0.03 c 0.02623,7.70369 -0.107352,14.38315 0.0076,22.48095 -0.0041,0.0111 -0.302868,-1.11143 -0.9561,-1.40552 z"
       id="path1629"
       inkscape:connector-curvature="0"
       sodipodi:nodetypes="csscccsccccc" />
  </g>
</svg>
